<svg id="Layer_1" height="512" viewBox="0 0 512 512" width="512" xmlns="http://www.w3.org/2000/svg" data-name="Layer 1"><path d="m301.764 443.284h18.318v15.423h-18.318z" fill="#d4e1f4"/><path d="m320.082 475.972v-6.272h-18.318v6.273a11.265 11.265 0 0 0 11.252 11.252h18.318a11.265 11.265 0 0 1 -11.252-11.253z" fill="#d4e1f4"/><path d="m298.543 377.94a77.176 77.176 0 0 1 -24.215-59.276c1.362-37.32 30.713-68.7 67.62-73.32a79.49 79.49 0 0 0 -13.9-.435c-38.957 2.559-70.617 34.957-72.033 73.755a77.176 77.176 0 0 0 24.215 59.276 59.976 59.976 0 0 1 17.844 51.76l-.337 2.591h18.318l.337-2.591a59.976 59.976 0 0 0 -17.849-51.76z" fill="#d4e1f4"/><g fill="#0635c9"><path d="m61.462 438.2a6 6 0 0 0 6.348-.722l33.654-26.918 33.653 26.918a6 6 0 0 0 7.5 0l33.649-26.918 33.646 26.918a6 6 0 0 0 7.528-.025l38.716-31.395 34.394 31.18 8.06-8.89-38.21-34.635a6 6 0 0 0 -7.809-.215l-38.96 31.593-33.621-26.9a6 6 0 0 0 -7.5 0l-33.649 26.919-33.653-26.919a6 6 0 0 0 -7.5 0l-27.654 22.12v-351.082a42.674 42.674 0 0 1 42.634-42.629h261.063a48.243 48.243 0 0 0 -16.525 36.356v190.944h12v-93.339h78.712a6 6 0 0 0 6-6v-91.6a48.414 48.414 0 0 0 -46.037-48.3v-.061h-295.213a54.686 54.686 0 0 0 -54.626 54.629v363.571a6 6 0 0 0 3.4 5.4zm380.476-375.241v85.6h-72.712v-85.6a36.356 36.356 0 0 1 72.712 0z"/><path d="m102.884 198.067h2.674a6 6 0 0 0 0-12h-2.674a6 6 0 0 0 0 12z"/><path d="m152.449 186.067h-20.205a6 6 0 0 0 0 12h20.205a6 6 0 0 0 0-12z"/><path d="m330.4 192.067a6 6 0 0 0 -6-6h-144.832a6 6 0 1 0 0 12h144.832a6 6 0 0 0 6-6z"/><path d="m102.884 141.084h2.674a6 6 0 0 0 0-12h-2.674a6 6 0 0 0 0 12z"/><path d="m152.449 129.084h-20.205a6 6 0 1 0 0 12h20.205a6 6 0 0 0 0-12z"/><path d="m324.4 129.084h-144.832a6 6 0 0 0 0 12h144.832a6 6 0 0 0 0-12z"/><path d="m102.884 84.1h2.674a6 6 0 1 0 0-12h-2.674a6 6 0 1 0 0 12z"/><path d="m152.449 72.1h-20.205a6 6 0 0 0 0 12h20.205a6 6 0 0 0 0-12z"/><path d="m324.4 72.1h-144.832a6 6 0 0 0 0 12h144.832a6 6 0 0 0 0-12z"/><path d="m102.884 255.051h2.674a6 6 0 0 0 0-12h-2.674a6 6 0 0 0 0 12z"/><path d="m158.449 249.051a6 6 0 0 0 -6-6h-20.205a6 6 0 1 0 0 12h20.205a6 6 0 0 0 6-6z"/><path d="m273.42 249.051a6 6 0 0 0 -6-6h-87.852a6 6 0 0 0 0 12h87.852a6 6 0 0 0 6-6z"/><path d="m119.875 317.151a11 11 0 0 1 10.99 10.992 6 6 0 0 0 12 0 23.028 23.028 0 0 0 -16.99-22.192v-4.135a6 6 0 0 0 -12 0v4.135a22.99 22.99 0 0 0 6 45.183 10.988 10.988 0 0 1 .116 21.975c-.039 0-.077 0-.116 0s-.077 0-.116 0a11 11 0 0 1 -10.875-10.984 6 6 0 0 0 -12 0 23.028 23.028 0 0 0 16.991 22.191v4.909a6 6 0 0 0 12 0v-4.909a22.989 22.989 0 0 0 -6-45.182 10.992 10.992 0 0 1 0-21.983z"/><path d="m174.534 357.829a6 6 0 0 0 0 12h50.717a6 6 0 1 0 0-12z"/></g><path d="m273.637 388.235a46.878 46.878 0 0 1 13.884 40.488l-.848 6.5a7.267 7.267 0 0 0 1.233 5.692 7.659 7.659 0 0 0 3.093 2.5v31.728a22.277 22.277 0 0 0 22.253 22.257h38.574a22.277 22.277 0 0 0 22.253-22.252v-32.048a8.027 8.027 0 0 0 4.173-7.229c0-.056 0-.112-.006-.169l-.592-11.255a.266.266 0 0 1 0-.03c-.8-13.912 4.239-27.095 13.819-36.158 1.2-1.129 2.385-2.311 3.526-3.515a86.14 86.14 0 0 0 -67.86-145.155c-43.577 2.862-78.952 39.091-80.534 82.458a86.21 86.21 0 0 0 27.034 66.191zm29.363 55.853h59.08v13.635h-59.08zm48.826 41.312h-38.574a10.264 10.264 0 0 1 -10.252-10.255v-5.422h59.08v5.422a10.264 10.264 0 0 1 -10.254 10.255zm-93.232-162.9c1.361-37.315 31.814-68.477 69.28-70.938a74.13 74.13 0 0 1 58.41 124.926c-.981 1.036-2 2.055-3.049 3.039-12.164 11.507-18.565 28.113-17.564 45.56l.368 7h-66.856l.228-1.755a58.879 58.879 0 0 0 -17.526-50.814 74.22 74.22 0 0 1 -23.291-57.018z" fill="#1ae5be"/><path d="m302.361 366.518h17.358l.466 48.431a6 6 0 0 0 11.5 2.332l36.522-84.127a6 6 0 0 0 -5.5-8.389h-17.357l-.471-48.429a6 6 0 0 0 -11.5-2.331l-36.518 84.123a6 6 0 0 0 5.5 8.39zm30.792-61.866.254 26.171a6 6 0 0 0 6 5.942h14.154l-21.648 49.865-.252-26.17a6 6 0 0 0 -6-5.942h-14.154z" fill="#1ae5be"/></svg>